inDegrees=yes
name=ik_lifting_orientations
DataType=double
version=3
OpenSimVersion=4.5-2024-01-10-34fd6af
endheader
time	pelvis_tilt	pelvis_list	pelvis_rotation	pelvis_tx	pelvis_ty	pelvis_tz	hip_flexion_r	hip_adduction_r	hip_rotation_r	knee_angle_r	knee_angle_r_beta	ankle_angle_r	subtalar_angle_r	mtp_angle_r	hip_flexion_l	hip_adduction_l	hip_rotation_l	knee_angle_l	knee_angle_l_beta	ankle_angle_l	subtalar_angle_l	mtp_angle_l	lumbar_extension	lumbar_bending	lumbar_rotation	arm_flex_r	arm_add_r	arm_rot_r	elbow_flex_r	pro_sup_r	wrist_flex_r	wrist_dev_r	arm_flex_l	arm_add_l	arm_rot_l	elbow_flex_l	pro_sup_l	wrist_flex_l	wrist_dev_l
0.02	-0.008922953933023992	-0.02153415467145432	-90.00368116446472	0	0.9399999998679526	0	44.990325103361	-11.65891933501064	0	59.99596541113691	1.047127134336973	-5.804286473404177	0	0	44.990325103361	-11.65891933501064	0	59.99596541113691	1.047127134336973	-5.804286473404177	0	0	-0.03898173145657646	0.01221672087583695	0.02677330354179103	-0.4653440095304206	-0.1240487427796065	-0.0409581168687207	1.006711236372064	2.5496907892614	0	0	0	-10.294571509881	0	87.50082065729457	2.5496907892614	0	0
0.03	0.001131259245551258	0.01975916884577888	-90.00806146832977	0	0.9399999998679526	0	44.99054664017733	-11.53935765577077	0	59.99604088994331	1.04712845169066	-5.731891097491935	0	0	44.99054664017733	-11.53935765577077	0	59.99604088994331	1.04712845169066	-5.731891097491935	0	0	0.03671768820512711	0.00574403634666309	0.0623212361337696	-0.4900761287981342	-0.1256985417055736	-0.06393057283671021	0.9770401710217975	2.508525207739962	0	0	0	-10.35094382887416	0	87.54116684102026	2.508525207739962	0	0
0.04	-0.02196553004678586	0.0144499449648335	-89.94010500395574	0	0.9399999998679526	0	44.99093613233171	-11.34439755848346	0	59.99617454287561	1.047130784374383	-5.617137555154089	0	0	44.99093613233171	-11.34439755848346	0	59.99617454287561	1.047130784374383	-5.617137555154089	0	0	0.02306986633566453	0.01890887994414355	-0.005524795968261602	-0.4724907698375632	-0.1078127529360968	-0.06846421277298344	0.9747297019291171	2.43542557319627	0	0	0	-10.45165929041184	0	87.6128115690499	2.43542557319627	0	0
0.05	-0.0240153986674971	0.0184211352310972	-89.97536149508807	0	0.9399999998679526	0	44.99113424180506	-11.25198293592476	0	59.99624298131678	1.047131978850516	-5.564141955188897	0	0	44.99113424180506	-11.25198293592476	0	59.99624298131678	1.047131978850516	-5.564141955188897	0	0	0.03368935694727824	0.02286895812554031	0.0374897204970291	-0.49122085994186	-0.1157848506917513	-0.1021607130428183	0.9815992836516951	2.397890344286021	0	0	0	-10.50367644206549	0	87.64959979544496	2.397890344286021	0	0
0.06	-0.01608716390737103	0.006538737473460275	-90.01324052541426	0	0.9399999998679526	0	44.99134945672728	-11.15724984765116	0	59.99631778482797	1.047133284418079	-5.511001404748384	0	0	44.99134945672728	-11.15724984765116	0	59.99631778482797	1.047133284418079	-5.511001404748384	0	0	0.007949634345542491	0.01461018871010135	0.07622547774147356	-0.2440445533535598	-0.0608872544089028	-0.09799612543574446	0.5058791633219881	2.356799185327056	0	0	0	-10.56089147146651	0	87.6898732373278	2.356799185327056	0	0
0.07000000000000001	-0.03387200955912549	-0.002778063617737397	-89.94231202443505	0	0.9399999998679526	0	44.9917569340563	-11.00090008137604	0	59.9964612303601	1.047135788014912	-5.427558005521796	0	0	44.9917569340563	-11.00090008137604	0	59.9964612303601	1.047135788014912	-5.427558005521796	0	0	-0.06630155332971673	0.03188422171854159	0.00288413814731121	-0.1810429565944083	-0.06541151110217841	-0.1095176557319415	0.5031023212818004	2.277526182409066	0	0	0	-10.67254917947098	0	87.76756895133306	2.277526182409066	0	0
0.08	-0.03242764638946256	0.001847250262537126	-89.94199108276005	0	0.9399999998679526	0	44.99190490309366	-10.94645380515626	0	59.99651357602219	1.047136701619064	-5.398835731236161	0	0	44.99190490309366	-10.94645380515626	0	59.99651357602219	1.047136701619064	-5.398835731236161	0	0	-0.06385419296154918	0.03096634104948441	0.0745193560593474	-0.1721980475264566	-0.06710495627232464	-0.1951086849177694	0.4844268020345788	2.248540651205313	0	0	0	-10.7135546770452	0	87.79597778777691	2.248540651205313	0	0
0.09	-0.0333949618284754	-0.0008203761122551166	-89.94490016195935	0	0.9399999998679526	0	44.99212066288162	-10.87016363887917	0	59.9965901872404	1.047138038737066	-5.359207240293352	0	0	44.99212066288162	-10.87016363887917	0	59.9965901872404	1.047138038737066	-5.359207240293352	0	0	-0.06328229072335806	0.03157420397038026	0.01380538828601699	-0.1759774269026124	-0.06927942128244211	-0.1306117156846001	0.4845446306386208	2.206053218956369	0	0	0	-10.77385450486688	0	87.83761992528423	2.206053218956369	0	0
0.1	-0.03217152261827214	0.0008784540897895333	-89.94649357177606	0	0.9399999998679526	0	44.99251074848399	-10.75611928385465	0	59.99673127657005	1.047140501210408	-5.303984737736554	0	0	44.99251074848399	-10.75611928385465	0	59.99673127657005	1.047140501210408	-5.303984737736554	0	0	-0.05943550371714421	0.03322484401875294	0.0151794952545746	-0.1781217907725314	-0.074196714084722	-0.1306474212189532	0.4847739233415659	2.127231551971818	0	0	0	-10.88750614262218	0	87.91487370471427	2.127231551971818	0	0
0.11	-0.03735393103111673	0.03106571173710331	-89.92988250379095	0	0.9399999998679526	0	44.99268271690071	-10.70236235279848	0	59.99679317608679	1.047141581560781	-5.277118899961683	0	0	44.99268271690071	-10.70236235279848	0	59.99679317608679	1.047141581560781	-5.277118899961683	0	0	-0.004213894119280773	0.05109624066161329	0.004842169928356104	-0.4668158215051355	-0.1331864853017556	-0.214174207526922	0.9981539289442012	2.092719257863565	0	0	0	-10.93707475663736	0	87.9486994583543	2.092719257863565	0	0
0.12	-0.03793749464947102	0.01230896684218127	-89.96332018537508	0	0.9399999998679526	0	44.99289503011921	-10.64046099371997	0	59.9968701750075	1.047142925445467	-5.24698188068559	0	0	44.99289503011921	-10.64046099371997	0	59.9968701750075	1.047142925445467	-5.24698188068559	0	0	-0.03485890876524372	0.03946031227050247	0.03946259290071921	-0.4399436167964609	-0.1162952372431691	-0.210896050775879	0.9703534945288654	2.049712521398098	0	0	0	-10.99919487416373	0	87.99085072809271	2.049712521398098	0	0
0.13	-0.02627887532026238	0.0004693159427025541	-90.00047857546114	0	0.9399999998679526	0	44.99304712005954	-10.59733412532905	0	59.99692544073088	1.047143890014304	-5.226191420823758	0	0	44.99304712005954	-10.59733412532905	0	59.99692544073088	1.047143890014304	-5.226191420823758	0	0	-0.06367917927893976	0.03100720640129198	0.07226610897087657	-0.1893659089249921	-0.07870329319866777	-0.2316467888089994	0.4873176656281843	2.018782150077189	0	0	0	-11.04398229165256	0	88.02116586298139	2.018782150077189	0	0
0.14	-0.04893907188472969	-6.465301984569729e-05	-89.94358019417261	0	0.9399999998679526	0	44.99322213295302	-10.55131203643147	0	59.99698949896199	1.04714500804135	-5.204615860956187	0	0	44.99322213295302	-10.55131203643147	0	59.99698949896199	1.04714500804135	-5.204615860956187	0	0	-0.06259885512821012	0.04811162885104018	0.01553841394754364	-0.1808993832423914	-0.09584935145724653	-0.2165406732513001	0.4676086120843094	1.982823162917194	0	0	0	-11.0963801807522	0	88.05640963434973	1.982823162917194	0	0
0.15	-0.04663078820618379	-0.0005415725448535715	-89.94677992204853	0	0.9399999998679526	0	44.99340200601864	-10.50700326468283	0	59.9970557600093	1.047146164514791	-5.184330746925413	0	0	44.99340200601864	-10.50700326468283	0	59.9970557600093	1.047146164514791	-5.184330746925413	0	0	-0.06377919555653398	0.04668234899920379	0.01650989723343622	-0.1798092136526258	-0.08734455173964036	-0.1877080699429325	0.4780354242409089	1.945530233794013	0	0	0	-11.15102521558465	0	88.09296085441696	1.945530233794013	0	0
0.16	-0.04660123625661645	0.0007703419203296282	-89.94608096564809	0	0.9399999998679526	0	44.99387373591523	-10.40667798681499	0	59.99723208670573	1.047149241996203	-5.140775259119679	0	0	44.99387373591523	-10.40667798681499	0	59.99723208670573	1.047149241996203	-5.140775259119679	0	0	-0.06070665944052751	0.04560921434372036	0.01622562582546625	-0.1817834395394045	-0.08640908610703689	-0.1883217657482542	0.4780258481757398	1.84571276797844	0	0	0	-11.29913707751056	0	88.19079329062076	1.84571276797844	0	0
0.17	-0.03500589908474924	-0.008308215563448351	-89.9482021305414	0	0.9399999998679526	0	44.99436330634742	-10.31593082005896	0	59.99741775816191	1.04715248257444	-5.103139153833864	0	0	44.99436330634742	-10.31593082005896	0	59.99741775816191	1.04715248257444	-5.103139153833864	0	0	-0.0892306471268495	0.03624701087009229	0.0161398717346326	-0.3962181021421235	-0.1538381241341239	-0.1882241116045773	0.9727979008334956	1.739995833456612	0	0	0	-11.45800153987425	0	88.29440807315949	1.739995833456612	0	0
0.18	-0.0452124373739056	0.01989614200183924	-89.95385382916014	0	0.9399999998679526	0	44.99448896336005	-10.29378768609201	0	59.99746567849272	1.047153318941991	-5.094103804357121	0	0	44.99448896336005	-10.29378768609201	0	59.99746567849272	1.047153318941991	-5.094103804357121	0	0	-0.02639974066541154	0.05453411481144523	0.01822163399716648	-0.4335185345484759	-0.1503005792744462	-0.1585910454217526	0.9746215503833071	1.712654692427619	0	0	0	-11.49928339143583	0	88.32120555887244	1.712654692427619	0	0
